<svg width="477" height="755" viewBox="0 0 477 755" fill="none" xmlns="http://www.w3.org/2000/svg">
<g clip-path="url(#clip0_2_1302)">
<path d="M108.622 70.9567L91.7307 80.7151V240.192L108.622 230.605V70.9567Z" fill="black"/>
<path d="M221.012 6.39117L207.961 13.9184L183.837 27.8531L157.524 43.0546L137.78 54.4476V54.6355H136.889L114.768 67.4097V78.7291L141.065 63.5439C141.049 63.3233 140.934 63.1353 140.934 62.9065C140.934 58.7546 144.309 55.3793 148.461 55.3793C152.604 55.3793 155.979 58.7546 155.979 62.9065C155.979 67.0583 152.604 70.4337 148.461 70.4337C146.867 70.4337 145.47 69.8207 144.244 68.9707L114.768 85.9866V227.107L137.78 214.047V156.567L160.269 142.044L183.837 127.333V187.91L232.093 160.523V0L221.012 6.39117ZM185.423 103.918L185.186 103.926C185.055 104.179 184.843 104.367 184.589 104.514C184.426 104.653 184.23 104.743 184.009 104.8C183.952 104.825 183.903 104.866 183.837 104.874V105.103H147.472L146.042 105.152L146.442 83.641L185.472 63.9689L185.423 103.918Z" fill="black"/>
<path d="M148.461 67.3688C150.912 67.3688 152.906 65.3747 152.906 62.9146C152.906 60.4546 150.912 58.4604 148.461 58.4604C146.009 58.4604 144.007 60.4546 144.007 62.9146C144.007 65.3747 146.009 67.3688 148.461 67.3688Z" fill="#2B38FF"/>
<path d="M374.686 237.691L373.42 143.344L353.464 118.956L373.248 116.994V63.9362L246.5 0V160.041L287.998 185.679L286.821 125.878H288.137L304.799 136.634V113.554H273.893C272.602 116.798 269.456 119.103 265.762 119.103C260.924 119.103 256.977 115.164 256.977 110.317C256.977 105.471 260.916 101.523 265.762 101.523C269.701 101.523 272.92 104.179 274.032 107.759H304.799V93.4566H286.821V52.862L308.632 62.5223L309.866 63.0699L329.062 71.5697V93.4647H310.593V140.369L328.874 152.17L328.449 211.685L374.686 237.691Z" fill="black"/>
<path d="M260.058 110.325C260.058 113.472 262.616 116.038 265.77 116.038C268.916 116.038 271.49 113.472 271.49 110.325C271.49 107.171 268.924 104.604 265.77 104.604C262.616 104.604 260.058 107.171 260.058 110.325Z" fill="#2B38FF"/>
<path d="M178.836 252.549V234.111L160.531 244.687C160.833 245.807 161.225 246.902 161.225 248.12C161.225 255.557 155.178 261.605 147.742 261.605C144.342 261.605 141.31 260.232 138.94 258.148L48.8441 310.168L48.9748 330.151L72.0362 315.178L179.163 253.318C179.073 253.048 178.836 252.852 178.836 252.549Z" fill="black"/>
<path d="M243.403 398.288C243.403 394.324 240.183 391.112 236.228 391.112C232.273 391.112 229.061 394.324 229.061 398.288C229.061 402.251 232.273 405.463 236.228 405.463C240.183 405.463 243.403 402.251 243.403 398.288Z" fill="#2B38FF"/>
<path d="M147.742 240.772C143.688 240.772 140.395 244.074 140.395 248.12C140.395 252.165 143.688 255.467 147.742 255.467C151.787 255.467 155.08 252.165 155.08 248.12C155.08 244.074 151.787 240.772 147.742 240.772Z" fill="#2B38FF"/>
<path d="M233.76 595.09V411.111C227.639 409.918 222.916 404.761 222.916 398.288C222.916 391.815 227.639 386.666 233.76 385.464V169.701L49.3998 276.144V276.381L49.0647 276.202C48.9176 276.283 48.7705 276.373 48.6234 276.447L48.795 302.657L135.198 252.77C134.65 251.307 134.258 249.762 134.258 248.111C134.258 240.674 140.305 234.626 147.742 234.626C151.591 234.626 155.015 236.285 157.475 238.876L180.381 225.375C180.699 225.187 181.124 225.252 181.525 225.277C181.615 225.268 181.664 225.187 181.754 225.187C181.811 225.187 181.843 225.244 181.901 225.244C182.097 225.285 182.203 225.366 182.383 225.448C183.641 225.767 184.663 226.739 184.663 228.096V250.147L213.289 233.613V583.28L233.76 595.09Z" fill="black"/>
<path d="M317.556 234.961C313.503 234.961 310.209 238.263 310.209 242.309C310.209 246.354 313.503 249.656 317.556 249.656C321.601 249.656 324.894 246.354 324.894 242.309C324.894 238.263 321.601 234.961 317.556 234.961Z" fill="#2B38FF"/>
<path d="M326.423 252.28C324.045 254.396 320.988 255.786 317.556 255.786C310.119 255.786 304.072 249.738 304.072 242.301C304.072 234.863 310.119 228.815 317.556 228.815C324.992 228.815 331.04 234.863 331.04 242.301C331.04 243.927 330.639 245.431 330.116 246.877L422.362 300.14V274.395L391.504 256.579L240.396 169.325V385.816C245.667 387.589 249.54 392.428 249.54 398.288C249.54 404.148 245.667 408.986 240.396 410.759V595.458L258.472 585.021V231.864L422.362 326.497V307.675L326.423 252.28Z" fill="black"/>
<path d="M74.9046 401.254C74.9046 397.331 71.7093 394.136 67.795 394.136C63.8806 394.136 60.6935 397.331 60.6935 401.254C60.6935 405.169 63.8806 408.357 67.795 408.357C71.7093 408.357 74.9046 405.161 74.9046 401.254Z" fill="#2B38FF"/>
<path d="M158.308 462.902V499.443L94.591 462.649V365.073L158.66 328.075V347.739H203.843V249.885L49.3998 339.051V488.639L64.7223 497.49V413.881C58.9447 412.459 54.5481 407.474 54.5481 401.254C54.5481 393.948 60.4892 387.998 67.795 387.998C75.1007 387.998 81.05 393.948 81.05 401.254C81.05 407.474 76.6534 412.459 70.8676 413.881V501.045L203.843 577.845V524.526H204.112V462.91H158.308V462.902Z" fill="black"/>
<path d="M365.575 304.512C365.534 304.496 365.485 304.488 365.444 304.463C365.305 304.373 365.166 304.3 365.019 304.218C365.003 304.21 364.864 304.136 364.97 304.194C365.068 304.251 364.954 304.185 364.937 304.177C364.864 304.136 364.782 304.096 364.708 304.063C364.349 303.883 363.997 303.703 363.646 303.507C363.303 303.311 362.976 303.066 362.69 302.796C362.543 302.722 362.404 302.649 362.273 302.551H362.159L267.919 248.144V579.578L286.96 568.585V529.413H288.75C282.898 528.743 278.281 523.937 278.281 517.914C278.281 511.433 283.552 506.169 290.033 506.169C296.513 506.169 301.784 511.441 301.784 517.914C301.784 523.937 297.167 528.743 291.316 529.413H293.105V565.038L313.11 553.482V429.688H367.74V384.5H313.11V326.334L377.179 363.324V375.06H422.37V337.318L365.575 304.512Z" fill="black"/>
<path d="M290.024 512.307C286.927 512.307 284.418 514.816 284.418 517.914C284.418 521.011 286.935 523.528 290.024 523.528C293.113 523.528 295.63 521.011 295.63 517.914C295.639 514.816 293.122 512.307 290.024 512.307Z" fill="#2B38FF"/>
<path d="M101.48 636.412V752.377H74.6431V736.701H26.4038L53.5593 708.341H74.6431V677.628L0 755V714.111L74.6431 636.404H101.48V636.412Z" fill="black"/>
<path d="M117.276 664.306L144.113 636.412H156.241C170.043 636.412 180.168 639.444 186.616 645.5C193.513 651.973 196.97 662.418 196.97 676.835C196.97 682.057 195.564 686.757 192.745 690.933C191.47 692.813 188.839 695.739 184.843 699.702L198.596 713.49V754.224L145.609 696.425H156.102C159.918 696.425 163.203 694.938 165.973 691.963C168.744 688.988 170.125 685.147 170.125 680.447C170.125 675.02 169.259 671.106 167.534 668.703C165.442 665.777 161.634 664.314 156.094 664.314H144.105V752.385H117.268V664.306H117.276Z" fill="black"/>
<path d="M275.699 752.377H268.205C252.131 752.377 238.663 746.811 227.819 735.688C216.967 724.564 211.541 710.801 211.541 694.398C211.541 678.102 216.991 664.363 227.885 653.183C238.786 642.002 252.221 636.412 268.205 636.412H302.528L275.699 664.306H270.117C261.128 664.306 253.586 667.183 247.506 672.928C241.417 678.674 238.377 685.833 238.377 694.398C238.377 702.857 241.442 709.992 247.571 715.787C253.7 721.589 261.218 724.483 270.117 724.483H275.699V752.377Z" fill="black"/>
<path d="M292.313 664.306L319.15 636.412H379.761L352.924 664.306H347.343V752.377H320.506V664.306H292.313Z" fill="black"/>
<path d="M400.633 679.949V664.11L401.36 636.722H400.633L373.992 664.11V750.57H400.633V707.344H442.669V679.957H400.633V679.949Z" fill="black"/>
<path d="M477 636.412L450.384 663.799H408.347L409.074 636.412H477Z" fill="#2B38FF"/>
</g>
<defs>
<clipPath id="clip0_2_1302">
<rect width="477" height="755" fill="white"/>
</clipPath>
</defs>
</svg>
